<svg xmlns="http://www.w3.org/2000/svg" viewBox="0 0 100 100"><polygon points="50,4 96,50 50,96 4,50" fill="#F2C200" stroke="black" stroke-width="4"/><path d="M50,28 A22,22 0 0,1 72,50" fill="none" stroke="black" stroke-width="4" stroke-linecap="round"/><polygon points="72,44 72,56 80,50" fill="black"/><path d="M72,50 A22,22 0 0,1 50,72" fill="none" stroke="black" stroke-width="4" stroke-linecap="round"/><polygon points="44,72 56,72 50,80" fill="black"/><path d="M50,72 A22,22 0 0,1 28,50" fill="none" stroke="black" stroke-width="4" stroke-linecap="round"/><path d="M28,50 A22,22 0 0,1 50,28" fill="none" stroke="black" stroke-width="4" stroke-linecap="round"/><polygon points="44,22 56,22 50,30" fill="black"/></svg>
