<?xml version="1.0" encoding="UTF-8" standalone="no"?>
<!-- Created with Inkscape (http://www.inkscape.org/) -->

<svg
   xmlns:dc="http://purl.org/dc/elements/1.1/"
   xmlns:cc="http://creativecommons.org/ns#"
   xmlns:rdf="http://www.w3.org/1999/02/22-rdf-syntax-ns#"
   xmlns:svg="http://www.w3.org/2000/svg"
   xmlns="http://www.w3.org/2000/svg"
   xmlns:sodipodi="http://sodipodi.sourceforge.net/DTD/sodipodi-0.dtd"
   xmlns:inkscape="http://www.inkscape.org/namespaces/inkscape"
   width="81.945999cm"
   height="81.945999cm"
   viewBox="0 0 819.45998 819.45995"
   version="1.1"
   id="svg8"
   inkscape:version="0.92.2 (5c3e80d, 2017-08-06)"
   sodipodi:docname="66.svg">
  <defs
     id="defs2" />
  <sodipodi:namedview
     id="base"
     pagecolor="#ffffff"
     bordercolor="#666666"
     borderopacity="1.0"
     inkscape:pageopacity="0.0"
     inkscape:pageshadow="2"
     inkscape:zoom="0.15879247"
     inkscape:cx="2469.2886"
     inkscape:cy="972.55042"
     inkscape:document-units="cm"
     inkscape:current-layer="layer1"
     showgrid="false"
     units="cm"
     inkscape:window-width="1920"
     inkscape:window-height="1057"
     inkscape:window-x="-8"
     inkscape:window-y="-8"
     inkscape:window-maximized="1"
     inkscape:snap-global="false"
     fit-margin-top="0"
     fit-margin-left="0"
     fit-margin-right="0"
     fit-margin-bottom="0" />
  <metadata
     id="metadata5">
    <rdf:RDF>
      <cc:Work
         rdf:about="">
        <dc:format>image/svg+xml</dc:format>
        <dc:type
           rdf:resource="http://purl.org/dc/dcmitype/StillImage" />
        <dc:title></dc:title>
      </cc:Work>
    </rdf:RDF>
  </metadata>
  <g
     inkscape:label="Layer 1"
     inkscape:groupmode="layer"
     id="layer1"
     transform="translate(-283.73,571.45997)">
    <rect
       style="fill:#facd00;fill-opacity:1;stroke:none;stroke-width:59.79019928;stroke-miterlimit:4;stroke-dasharray:none;stroke-opacity:1"
       id="rect815"
       width="600"
       height="600"
       x="304.71335"
       y="75.989883"
       rx="40"
       ry="40"
       transform="rotate(-45)" />
    <rect
       y="87.989883"
       x="316.71329"
       height="576"
       width="576"
       id="rect12551"
       style="fill:#000000;fill-opacity:1;stroke:none;stroke-width:57.39859009;stroke-miterlimit:4;stroke-dasharray:none;stroke-opacity:1"
       rx="28"
       ry="28"
       transform="rotate(-45)" />
    <rect
       y="99.989944"
       x="328.71329"
       height="552"
       width="552"
       id="rect12553"
       style="fill:#facd00;fill-opacity:1;stroke:none;stroke-width:55.00698471;stroke-miterlimit:4;stroke-dasharray:none;stroke-opacity:1"
       rx="16"
       ry="16"
       transform="rotate(-45)" />
    <path
       style="color:#000000;font-style:normal;font-variant:normal;font-weight:normal;font-stretch:normal;font-size:medium;line-height:normal;font-family:sans-serif;font-variant-ligatures:normal;font-variant-position:normal;font-variant-caps:normal;font-variant-numeric:normal;font-variant-alternates:normal;font-feature-settings:normal;text-indent:0;text-align:start;text-decoration:none;text-decoration-line:none;text-decoration-style:solid;text-decoration-color:#000000;letter-spacing:normal;word-spacing:normal;text-transform:none;writing-mode:lr-tb;direction:ltr;text-orientation:mixed;dominant-baseline:auto;baseline-shift:baseline;text-anchor:start;white-space:normal;shape-padding:0;clip-rule:nonzero;display:inline;overflow:visible;visibility:visible;opacity:1;isolation:auto;mix-blend-mode:normal;color-interpolation:sRGB;color-interpolation-filters:linearRGB;solid-color:#000000;solid-opacity:1;vector-effect:none;fill:#000000;fill-opacity:1;fill-rule:nonzero;stroke:none;stroke-width:39.98119354;stroke-linecap:butt;stroke-linejoin:round;stroke-miterlimit:4;stroke-dasharray:none;stroke-dashoffset:0;stroke-opacity:1;color-rendering:auto;image-rendering:auto;shape-rendering:auto;text-rendering:auto;enable-background:accumulate"
       d="m 693.45997,-520.46384 118.15731,117.9316 c 13.2713,13.4096 2.28983,36.0499 -16.4571,33.9294 l -51.70021,-5.861 v 54 h -100 v -54 l -51.7002,5.8613 c -18.74694,2.1206 -29.72841,-20.5198 -16.45711,-33.9294 z"
       id="path1804"
       inkscape:connector-curvature="0"
       sodipodi:nodetypes="cccccccccc" />
    <path
       style="fill:#be141e;fill-opacity:1;stroke:none;stroke-width:0.42000002"
       d="m 780.44477,-310.00002 123.01521,123.01514 V -13.015189 L 780.44475,109.99999 H 606.47516 L 483.46,-13.015147 V -186.98483 l 123.01511,-123.01515 z"
       id="path3032"
       inkscape:connector-curvature="0"
       sodipodi:nodetypes="ccccccccc" />
    <path
       sodipodi:nodetypes="ccccccccc"
       inkscape:connector-curvature="0"
       id="path4609"
       d="M 777.54542,102.99997 609.37466,103 490.46001,-15.914659 V -184.08543 l 118.91459,-118.9146 h 168.17075 l 118.91464,118.91464 4e-5,168.170699 z"
       style="fill:#ffffff;fill-opacity:1;stroke:none;stroke-width:0.40600005" />
    <path
       sodipodi:nodetypes="ccccccccc"
       inkscape:connector-curvature="0"
       id="path4611"
       d="m 774.64582,-296.00007 114.81421,114.81416 V -18.814171 L 774.64581,96.000016 H 612.27416 L 497.46001,-18.81414 l 10e-6,-162.37171 114.8141,-114.81418 z"
       style="fill:#be141e;fill-opacity:1;stroke:none;stroke-width:0.39200005" />
    <path
       d="m 574.75257,-107.16749 c 7.76716,0.0742 11.65378,-5.29765 11.65378,-16.12941 0,-12.09349 -4.14052,-18.14022 -12.42154,-18.14022 h -10.50073 v 34.26963 z M 547.86001,-156 h 27.27488 c 9.22509,0 16.35003,3.54888 21.38682,10.64093 4.26894,5.9727 6.40497,13.32962 6.40497,22.06217 0,8.88928 -2.60801,16.16928 -7.81502,21.84005 -5.54763,5.975601 -13.23119,8.923461 -23.0448,8.849421 -4.01806,-0.0742 -6.87695,-0.11109 -8.58278,-0.11109 v 48.718523 h -15.62407 z"
       style="fill:#ffffff;fill-opacity:1;fill-rule:nonzero;stroke:none;stroke-width:2.91697145"
       id="path10937"
       inkscape:connector-curvature="0" />
    <path
       d="m 663.83902,-88.418849 -6.77901,-29.537631 -7.16496,29.537631 z m -15.34849,-67.579981 h 16.62825 l 26.47457,111.998834 -17.00841,-0.113862 -7.16488,-29.762398 h -21.10311 l -7.16495,29.762398 -16.62532,0.113862 z"
       style="fill:#ffffff;fill-opacity:1;fill-rule:nonzero;stroke:none;stroke-width:2.87351871"
       id="path10943"
       inkscape:connector-curvature="0" />
    <path
       d="m 747.94558,-136.19522 c -1.87734,-3.57945 -5.33671,-5.3691 -10.37251,-5.3691 h -10.75652 v 30.76675 h 12.42173 c 4.35362,0 7.33726,-1.52795 8.96238,-4.58672 1.02319,-2.01449 1.53617,-5.22117 1.53617,-9.62294 0,-5.07046 -0.59608,-8.79784 -1.79125,-11.18799 m 4.86667,36.41772 13.44777,55.777504 -16.90722,-0.113862 -14.34201,-52.138221 h -8.19424 v 52.138221 h -15.6232 V -155.99883 h 25.22758 c 19.89078,0 29.83909,10.49079 29.83909,31.47246 0,12.01873 -4.48548,20.27315 -13.44777,24.74887"
       style="fill:#ffffff;fill-opacity:1;fill-rule:nonzero;stroke:none;stroke-width:2.85571623"
       id="path10949"
       inkscape:connector-curvature="0" />
    <path
       d="m 790.52668,-156 h 46.74625 v 14.56036 h -31.03721 v 28.67362 h 20.68948 v 14.893651 h -20.68948 v 39.537017 h 32.82431 v 14.335356 h -48.53335 z"
       style="fill:#ffffff;fill-opacity:1;fill-rule:nonzero;stroke:none;stroke-width:2.93476915"
       id="path10955"
       inkscape:connector-curvature="0" />
  </g>
</svg>
