<?xml version="1.0" encoding="UTF-8" standalone="no"?><svg xmlns="http://www.w3.org/2000/svg" width="90.400002cm" height="90.400002cm" viewBox="0 0 9040.0002 9039.9996"><g transform="translate(0 6069.9998)"><circle cx="4520" cy="-1549.9996" r="4500" fill="#be141e"/><circle cx="4520" cy="-1549.9996" r="3600" fill="#fff"/><path d="M7550-2540.0376 5627.697-3981.8052c-69.272-50.3478-162.906-51.0252-232.899-1.685-69.994 49.3402-100.824 137.7559-76.685 219.9193L5520-3140.0359v1200.0356l-201.887 623.5351c-24.139 82.1634 6.691 170.5791 76.685 219.9192 69.993 49.3402 163.627 48.6628 232.899-1.6849z" color="#000" font-family="sans-serif" font-weight="400" overflow="visible" style="line-height:normal;font-variant-ligatures:normal;font-variant-position:normal;font-variant-caps:normal;font-variant-numeric:normal;font-variant-alternates:normal;font-feature-settings:normal;text-indent:0;text-align:start;text-decoration-line:none;text-decoration-style:solid;text-decoration-color:#000;text-transform:none;text-orientation:mixed;white-space:normal;shape-padding:0;isolation:auto;mix-blend-mode:normal;solid-color:#000;solid-opacity:1"/><path d="M6220-3139.9994H2950.0016c-171.7398 0-310.0017 138.2617-310.0017 310.0017v4079.9982h1199.999v-2975.001c0-119.11 95.8898-214.9998 214.9998-214.9998H6220Z"/><path fill="#be141e" d="m1373.37489307-4060.22863362 636.39610307-636.39610307 5656.85424949 5656.8542495-636.39610307 636.39610306z"/></g></svg>